<?xml version="1.0" encoding="UTF-8" standalone="no"?>
<!DOCTYPE svg PUBLIC "-//W3C//DTD SVG 1.1//EN" "http://www.w3.org/Graphics/SVG/1.1/DTD/svg11.dtd">
<svg width="100%" height="100%" viewBox="0 0 48 48" version="1.1" xmlns="http://www.w3.org/2000/svg" xmlns:xlink="http://www.w3.org/1999/xlink" xml:space="preserve" xmlns:serif="http://www.serif.com/" style="fill-rule:evenodd;clip-rule:evenodd;stroke-linejoin:round;stroke-miterlimit:2;">
    <path d="M23,45.4C19.567,45.4 16.642,44.217 14.225,41.85C11.808,39.483 10.6,36.6 10.6,33.2L10.6,11.15C10.6,8.683 11.458,6.583 13.175,4.85C14.892,3.117 16.983,2.25 19.45,2.25C21.95,2.25 24.058,3.117 25.775,4.85C27.492,6.583 28.35,8.7 28.35,11.2L28.35,31.15C28.35,32.65 27.833,33.925 26.8,34.975C25.767,36.025 24.5,36.55 23,36.55C21.467,36.55 20.192,36 19.175,34.9C18.158,33.8 17.65,32.467 17.65,30.9L17.65,12.6C17.65,12.133 17.8,11.758 18.1,11.475C18.4,11.192 18.767,11.05 19.2,11.05C19.633,11.05 20.008,11.192 20.325,11.475C20.642,11.758 20.8,12.133 20.8,12.6L20.8,31.05C20.8,31.717 21.017,32.283 21.45,32.75C21.883,33.217 22.4,33.45 23,33.45C23.633,33.45 24.158,33.225 24.575,32.775C24.992,32.325 25.2,31.783 25.2,31.15L25.2,11.15C25.2,9.55 24.642,8.2 23.525,7.1C22.408,6 21.05,5.45 19.45,5.45C17.85,5.45 16.492,6 15.375,7.1C14.258,8.2 13.7,9.55 13.7,11.15L13.7,33.3C13.7,35.833 14.608,37.967 16.425,39.7C18.242,41.433 20.433,42.3 23,42.3C25.6,42.3 27.8,41.425 29.6,39.675C31.4,37.925 32.3,35.767 32.3,33.2L32.3,12.6C32.3,12.133 32.45,11.758 32.75,11.475C33.05,11.192 33.417,11.05 33.85,11.05C34.283,11.05 34.658,11.192 34.975,11.475C35.292,11.758 35.45,12.133 35.45,12.6L35.45,33.15C35.45,36.55 34.233,39.442 31.8,41.825C29.367,44.208 26.433,45.4 23,45.4Z" style="fill:white;fill-rule:nonzero;"/>
</svg>
