<?xml version="1.0" encoding="UTF-8" standalone="no"?>
<!DOCTYPE svg PUBLIC "-//W3C//DTD SVG 1.1//EN" "http://www.w3.org/Graphics/SVG/1.1/DTD/svg11.dtd">
<svg width="100%" height="100%" viewBox="0 0 48 48" version="1.1" xmlns="http://www.w3.org/2000/svg" xmlns:xlink="http://www.w3.org/1999/xlink" xml:space="preserve" xmlns:serif="http://www.serif.com/" style="fill-rule:evenodd;clip-rule:evenodd;stroke-linejoin:round;stroke-miterlimit:2;">
    <path d="M6,37.75L6,10.25C6,9.717 6.225,9.308 6.675,9.025C7.125,8.742 7.6,8.7 8.1,8.9L40.7,22.6C41.3,22.867 41.6,23.333 41.6,24C41.6,24.667 41.3,25.133 40.7,25.4L8.1,39.1C7.6,39.3 7.125,39.258 6.675,38.975C6.225,38.692 6,38.283 6,37.75ZM9,35.35L36.2,24L9,12.5L9,20.9L21.1,24L9,27L9,35.35ZM9,35.35L9,12.5L9,35.35Z" style="fill:white;fill-rule:nonzero;"/>
</svg>
